<?xml version="1.0" encoding="UTF-8" standalone="no"?>
<!-- Created with Inkscape (http://www.inkscape.org/) -->

<svg
   width="100mm"
   height="100mm"
   viewBox="0 0 100 100"
   version="1.1"
   id="svg1"
   xml:space="preserve"
   inkscape:version="1.4.4 (dcaf3e7, 2026-05-05)"
   sodipodi:docname="inkspaceLogo.svg"
   inkscape:export-filename="logo.png"
   inkscape:export-xdpi="130.048"
   inkscape:export-ydpi="130.048"
   xmlns:inkscape="http://www.inkscape.org/namespaces/inkscape"
   xmlns:sodipodi="http://sodipodi.sourceforge.net/DTD/sodipodi-0.dtd"
   xmlns="http://www.w3.org/2000/svg"
   xmlns:svg="http://www.w3.org/2000/svg"><sodipodi:namedview
     id="namedview1"
     pagecolor="#ffffff"
     bordercolor="#000000"
     borderopacity="0.25"
     inkscape:showpageshadow="2"
     inkscape:pageopacity="0.0"
     inkscape:pagecheckerboard="0"
     inkscape:deskcolor="#d1d1d1"
     inkscape:document-units="mm"
     inkscape:zoom="2"
     inkscape:cx="209.75"
     inkscape:cy="190.75"
     inkscape:window-width="1920"
     inkscape:window-height="1009"
     inkscape:window-x="1592"
     inkscape:window-y="-8"
     inkscape:window-maximized="1"
     inkscape:current-layer="g68"
     showguides="false" /><defs
     id="defs1"><inkscape:path-effect
       effect="fillet_chamfer"
       id="path-effect39"
       is_visible="true"
       lpeversion="1"
       nodesatellites_param="F,0,0,1,0,6.3235773,0,1 @ F,0,0,1,0,6.1645401,0,1 @ F,0,0,1,0,0,0,1 @ F,0,0,1,0,0,0,1"
       radius="0"
       unit="px"
       method="auto"
       mode="F"
       chamfer_steps="1"
       flexible="false"
       use_knot_distance="true"
       apply_no_radius="true"
       apply_with_radius="true"
       only_selected="false"
       hide_knots="false" /><inkscape:path-effect
       effect="fillet_chamfer"
       id="path-effect37"
       is_visible="true"
       lpeversion="1"
       nodesatellites_param="F,0,0,1,0,0,0,1 @ F,0,0,1,0,0,0,1 @ F,0,0,1,0,6.5106854,0,1 @ F,0,0,1,0,4.939141,0,1"
       radius="0"
       unit="px"
       method="auto"
       mode="F"
       chamfer_steps="1"
       flexible="false"
       use_knot_distance="true"
       apply_no_radius="true"
       apply_with_radius="true"
       only_selected="false"
       hide_knots="false" /><rect
       x="5.9999998"
       y="273.99999"
       width="113"
       height="65.499998"
       id="rect21" /><inkscape:path-effect
       effect="fillet_chamfer"
       id="path-effect21"
       is_visible="true"
       lpeversion="1"
       nodesatellites_param="F,0,0,1,0,6.3235773,0,1 @ F,0,0,1,0,6.1645401,0,1 @ F,0,0,1,0,0,0,1 @ F,0,0,1,0,0,0,1"
       radius="0"
       unit="px"
       method="auto"
       mode="F"
       chamfer_steps="1"
       flexible="false"
       use_knot_distance="true"
       apply_no_radius="true"
       apply_with_radius="true"
       only_selected="false"
       hide_knots="false" /><inkscape:path-effect
       effect="fillet_chamfer"
       id="path-effect19"
       is_visible="true"
       lpeversion="1"
       nodesatellites_param="F,0,0,1,0,0,0,1 @ F,0,0,1,0,0,0,1 @ F,0,0,1,0,6.5106854,0,1 @ F,0,0,1,0,4.939141,0,1"
       radius="0"
       unit="px"
       method="auto"
       mode="F"
       chamfer_steps="1"
       flexible="false"
       use_knot_distance="true"
       apply_no_radius="true"
       apply_with_radius="true"
       only_selected="false"
       hide_knots="false" /><inkscape:path-effect
       effect="fillet_chamfer"
       id="path-effect57"
       is_visible="true"
       lpeversion="1"
       nodesatellites_param="F,0,0,1,0,0,0,1 @ F,0,0,1,0,0,0,1 @ F,0,0,1,0,0,0,1 @ F,0,0,1,0,0,0,1 @ F,0,0,1,0,0,0,1 @ F,0,0,1,0,0,0,1 @ F,0,0,1,0,0.61919214,0,1 @ F,0,0,1,0,0.53312822,0,1"
       radius="0"
       unit="px"
       method="auto"
       mode="F"
       chamfer_steps="1"
       flexible="false"
       use_knot_distance="true"
       apply_no_radius="true"
       apply_with_radius="true"
       only_selected="false"
       hide_knots="false" /><inkscape:path-effect
       effect="fillet_chamfer"
       id="path-effect55"
       is_visible="true"
       lpeversion="1"
       nodesatellites_param="F,0,0,1,0,2,0,1 @ F,0,0,1,0,2,0,1 @ F,0,0,1,0,2,0,1"
       radius="0"
       unit="px"
       method="auto"
       mode="F"
       chamfer_steps="1"
       flexible="false"
       use_knot_distance="true"
       apply_no_radius="true"
       apply_with_radius="true"
       only_selected="false"
       hide_knots="false" /><inkscape:path-effect
       effect="fillet_chamfer"
       id="path-effect53"
       is_visible="true"
       lpeversion="1"
       nodesatellites_param="F,0,0,1,0,0,0,1 @ F,0,0,1,0,0,0,1 @ F,0,0,1,0,0,0,1 @ F,0,0,1,0,0,0,1 @ F,0,0,1,0,0,0,1 @ F,0,0,1,0,0,0,1 @ F,0,0,1,0,0.61919214,0,1 @ F,0,0,1,0,0.53312822,0,1"
       radius="0"
       unit="px"
       method="auto"
       mode="F"
       chamfer_steps="1"
       flexible="false"
       use_knot_distance="true"
       apply_no_radius="true"
       apply_with_radius="true"
       only_selected="false"
       hide_knots="false" /><inkscape:path-effect
       effect="fillet_chamfer"
       id="path-effect51"
       is_visible="true"
       lpeversion="1"
       nodesatellites_param="F,0,0,1,0,0,0,1 @ F,0,0,1,0,0,0,1 @ F,0,0,1,0,0,0,1 @ F,0,0,1,0,0,0,1 @ F,0,0,1,0,0,0,1 @ F,0,0,1,0,0,0,1 @ F,0,0,1,0,0.61919214,0,1 @ F,0,0,1,0,0.53312822,0,1"
       radius="0"
       unit="px"
       method="auto"
       mode="F"
       chamfer_steps="1"
       flexible="false"
       use_knot_distance="true"
       apply_no_radius="true"
       apply_with_radius="true"
       only_selected="false"
       hide_knots="false" /><inkscape:path-effect
       effect="fillet_chamfer"
       id="path-effect49"
       is_visible="true"
       lpeversion="1"
       nodesatellites_param="F,0,0,1,0,0,0,1 @ F,0,0,1,0,0,0,1 @ F,0,0,1,0,0,0,1 @ F,0,0,1,0,0,0,1 @ F,0,0,1,0,0.28497839,0,1 @ F,0,0,1,0,0,0,1 @ F,0,0,1,0,0,0,1 @ F,0,0,1,0,0.23002928,0,1 @ F,0,0,1,0,0,0,1 @ F,0,0,1,0,0,0,1 @ F,0,0,1,0,0,0,1 @ F,0,0,1,0,0,0,1"
       radius="0"
       unit="px"
       method="auto"
       mode="F"
       chamfer_steps="1"
       flexible="false"
       use_knot_distance="true"
       apply_no_radius="true"
       apply_with_radius="true"
       only_selected="false"
       hide_knots="false" /><inkscape:path-effect
       effect="fillet_chamfer"
       id="path-effect47"
       is_visible="true"
       lpeversion="1"
       nodesatellites_param="F,0,0,1,0,0,0,1 @ F,0,0,1,0,0,0,1 @ F,0,0,1,0,0,0,1 @ F,0,0,1,0,0,0,1 @ F,0,0,1,0,0,0,1 @ F,0,0,1,0,0,0,1 @ F,0,0,1,0,0.61919214,0,1 @ F,0,0,1,0,0.53312822,0,1"
       radius="0"
       unit="px"
       method="auto"
       mode="F"
       chamfer_steps="1"
       flexible="false"
       use_knot_distance="true"
       apply_no_radius="true"
       apply_with_radius="true"
       only_selected="false"
       hide_knots="false" /><inkscape:path-effect
       effect="fillet_chamfer"
       id="path-effect20"
       is_visible="true"
       lpeversion="1"
       nodesatellites_param="F,0,0,1,0,0,0,1 @ F,0,0,1,0,0,0,1 @ F,0,0,1,0,0,0,1 @ F,0,0,1,0,0,0,1 @ F,0,0,1,0,0,0,1 @ F,0,0,1,0,0,0,1 @ F,0,0,1,0,0.61919214,0,1 @ F,0,0,1,0,0.53312822,0,1"
       radius="0"
       unit="px"
       method="auto"
       mode="F"
       chamfer_steps="1"
       flexible="false"
       use_knot_distance="true"
       apply_no_radius="true"
       apply_with_radius="true"
       only_selected="false"
       hide_knots="false" /><inkscape:path-effect
       effect="fillet_chamfer"
       id="path-effect18"
       is_visible="true"
       lpeversion="1"
       nodesatellites_param="F,0,0,1,0,0,0,1 @ F,0,0,1,0,0,0,1 @ F,0,0,1,0,0,0,1 @ F,0,0,1,0,0,0,1 @ F,0,0,1,0,0,0,1 @ F,0,0,1,0,0,0,1 @ F,0,0,1,0,0.61919214,0,1 @ F,0,0,1,0,0.53312822,0,1"
       radius="0"
       unit="px"
       method="auto"
       mode="F"
       chamfer_steps="1"
       flexible="false"
       use_knot_distance="true"
       apply_no_radius="true"
       apply_with_radius="true"
       only_selected="false"
       hide_knots="false" /><inkscape:path-effect
       effect="fillet_chamfer"
       id="path-effect16"
       is_visible="true"
       lpeversion="1"
       nodesatellites_param="F,0,0,1,0,2,0,1 @ F,0,0,1,0,2,0,1 @ F,0,0,1,0,2,0,1"
       radius="0"
       unit="px"
       method="auto"
       mode="F"
       chamfer_steps="1"
       flexible="false"
       use_knot_distance="true"
       apply_no_radius="true"
       apply_with_radius="true"
       only_selected="false"
       hide_knots="false" /><inkscape:path-effect
       effect="fillet_chamfer"
       id="path-effect12"
       is_visible="true"
       lpeversion="1"
       nodesatellites_param="F,0,0,1,0,0,0,1 @ F,0,0,1,0,0,0,1 @ F,0,0,1,0,0,0,1 @ F,0,0,1,0,0,0,1 @ F,0,0,1,0,0,0,1 @ F,0,0,1,0,0,0,1 @ F,0,0,1,0,0.61919214,0,1 @ F,0,0,1,0,0.53312822,0,1"
       radius="0"
       unit="px"
       method="auto"
       mode="F"
       chamfer_steps="1"
       flexible="false"
       use_knot_distance="true"
       apply_no_radius="true"
       apply_with_radius="true"
       only_selected="false"
       hide_knots="false" /><inkscape:path-effect
       effect="fillet_chamfer"
       id="path-effect11"
       is_visible="true"
       lpeversion="1"
       nodesatellites_param="F,0,0,1,0,1.1065417,0,1 @ F,0,0,1,0,0,0,1 @ F,0,0,1,0,1.0252178,0,1 @ F,0,0,1,0,0.95523108,0,1"
       radius="0"
       unit="px"
       method="auto"
       mode="F"
       chamfer_steps="1"
       flexible="false"
       use_knot_distance="true"
       apply_no_radius="true"
       apply_with_radius="true"
       only_selected="false"
       hide_knots="false" /><inkscape:path-effect
       effect="fillet_chamfer"
       id="path-effect10"
       is_visible="true"
       lpeversion="1"
       nodesatellites_param="F,0,0,1,0,1.1390712,0,1 @ F,0,0,1,0,0,0,1 @ F,0,0,1,0,1.0740121,0,1 @ F,0,0,1,0,0.86141968,0,1"
       radius="0"
       unit="px"
       method="auto"
       mode="F"
       chamfer_steps="1"
       flexible="false"
       use_knot_distance="true"
       apply_no_radius="true"
       apply_with_radius="true"
       only_selected="false"
       hide_knots="false" /><inkscape:path-effect
       effect="fillet_chamfer"
       id="path-effect9"
       is_visible="true"
       lpeversion="1"
       nodesatellites_param="F,0,0,1,0,1.1065417,0,1 @ F,0,0,1,0,0,0,1 @ F,0,0,1,0,1.0577473,0,1 @ F,0,0,1,0,0.97149585,0,1"
       radius="0"
       unit="px"
       method="auto"
       mode="F"
       chamfer_steps="1"
       flexible="false"
       use_knot_distance="true"
       apply_no_radius="true"
       apply_with_radius="true"
       only_selected="false"
       hide_knots="false" /><inkscape:path-effect
       effect="fillet_chamfer"
       id="path-effect8"
       is_visible="true"
       lpeversion="1"
       nodesatellites_param="F,0,0,1,0,1.2691894,0,1 @ F,0,0,1,0,0,0,1 @ F,0,0,1,0,1.0902769,0,1 @ F,0,0,1,0,0.87390722,0,1"
       radius="0"
       unit="px"
       method="auto"
       mode="F"
       chamfer_steps="1"
       flexible="false"
       use_knot_distance="true"
       apply_no_radius="true"
       apply_with_radius="true"
       only_selected="false"
       hide_knots="false" /><inkscape:path-effect
       effect="fillet_chamfer"
       id="path-effect7"
       is_visible="true"
       lpeversion="1"
       nodesatellites_param="F,0,0,1,0,0,0,1 @ F,0,0,1,0,0,0,1 @ F,0,0,1,0,0,0,1 @ F,0,0,1,0,0,0,1 @ F,0,0,1,0,0.28497839,0,1 @ F,0,0,1,0,0,0,1 @ F,0,0,1,0,0,0,1 @ F,0,0,1,0,0.23002928,0,1 @ F,0,0,1,0,0,0,1 @ F,0,0,1,0,0,0,1 @ F,0,0,1,0,0,0,1 @ F,0,0,1,0,0,0,1"
       radius="0"
       unit="px"
       method="auto"
       mode="F"
       chamfer_steps="1"
       flexible="false"
       use_knot_distance="true"
       apply_no_radius="true"
       apply_with_radius="true"
       only_selected="false"
       hide_knots="false" /><linearGradient
       id="swatch4"
       inkscape:swatch="solid"><stop
         style="stop-color:#000000;stop-opacity:1;"
         offset="0"
         id="stop4" /></linearGradient><inkscape:path-effect
       effect="fillet_chamfer"
       id="path-effect7-3"
       is_visible="true"
       lpeversion="1"
       nodesatellites_param="F,0,0,1,0,0,0,1 @ F,0,0,1,0,0,0,1 @ F,0,0,1,0,0,0,1 @ F,0,0,1,0,0,0,1 @ F,0,0,1,0,0.28497839,0,1 @ F,0,0,1,0,0,0,1 @ F,0,0,1,0,0,0,1 @ F,0,0,1,0,0.23002928,0,1 @ F,0,0,1,0,0,0,1 @ F,0,0,1,0,0,0,1 @ F,0,0,1,0,0,0,1 @ F,0,0,1,0,0,0,1"
       radius="0"
       unit="px"
       method="auto"
       mode="F"
       chamfer_steps="1"
       flexible="false"
       use_knot_distance="true"
       apply_no_radius="true"
       apply_with_radius="true"
       only_selected="false"
       hide_knots="false" /><inkscape:path-effect
       effect="fillet_chamfer"
       id="path-effect12-1"
       is_visible="true"
       lpeversion="1"
       nodesatellites_param="F,0,0,1,0,0,0,1 @ F,0,0,1,0,0,0,1 @ F,0,0,1,0,0,0,1 @ F,0,0,1,0,0,0,1 @ F,0,0,1,0,0,0,1 @ F,0,0,1,0,0,0,1 @ F,0,0,1,0,0.61919214,0,1 @ F,0,0,1,0,0.53312822,0,1"
       radius="0"
       unit="px"
       method="auto"
       mode="F"
       chamfer_steps="1"
       flexible="false"
       use_knot_distance="true"
       apply_no_radius="true"
       apply_with_radius="true"
       only_selected="false"
       hide_knots="false" /><rect
       x="5.9999998"
       y="273.99999"
       width="113"
       height="65.499998"
       id="rect36" /></defs><g
     inkscape:label="Capa 1"
     inkscape:groupmode="layer"
     id="layer1"><g
       id="g45"
       inkscape:label="archivado"
       transform="translate(-30.316729,25.664234)"><path
         id="path4"
         style="fill:#0b00ff;fill-rule:evenodd;stroke-width:0.732347;stroke-linecap:round;stroke-linejoin:round;paint-order:stroke fill markers"
         d="m 168.49139,21.439597 a 2.5,2.5 0 0 0 -2.49959,2.499589 V 33.93961 a 2.5,2.5 0 0 0 2.49959,2.499589 2.5,2.5 0 0 0 2.50011,-2.499589 V 23.939186 a 2.5,2.5 0 0 0 -2.50011,-2.499589 z"
         transform="translate(18.939646,5.5565995)" /></g><rect
       style="fill:#cacaca;fill-opacity:1;fill-rule:evenodd;stroke:none;stroke-width:1;stroke-linecap:round;stroke-linejoin:round;paint-order:stroke fill markers"
       id="rect4"
       width="100"
       height="100"
       x="0"
       y="0"
       rx="15" /><g
       id="g65"
       transform="translate(59.266667,43.391666)"><path
         id="path45"
         style="fill:#000000;fill-rule:evenodd;stroke-width:0.732347;stroke-linecap:round;stroke-linejoin:round;paint-order:stroke fill markers"
         d="m 72.259156,-41.04142 c -1.380391,2.26e-4 -2.499363,1.119197 -2.49959,2.499589 v 21.951967 c 2.27e-4,1.380391 1.119199,2.499363 2.49959,2.499589 1.380594,6.1e-5 2.499883,-1.118995 2.50011,-2.499589 v -21.951967 c -2.27e-4,-1.380595 -1.119516,-2.49965 -2.50011,-2.499589 z"
         sodipodi:nodetypes="ccccccc" /><path
         id="path46"
         style="fill:#000000;fill-rule:evenodd;stroke-width:0.732347;stroke-linecap:round;stroke-linejoin:round;paint-order:stroke fill markers"
         d="m 62.25959,-39.498924 c -1.380391,2.26e-4 -2.499363,1.119197 -2.49959,2.499589 v 8.106701 c 2.27e-4,1.380391 1.119199,2.499363 2.49959,2.499589 1.380594,6.1e-5 2.499883,-1.118995 2.50011,-2.499589 v -8.106701 c -2.27e-4,-1.380595 -1.119516,-2.49965 -2.50011,-2.499589 z"
         sodipodi:nodetypes="ccccccc" /><path
         id="path47"
         style="fill:#000000;fill-rule:evenodd;stroke-width:0.732347;stroke-linecap:round;stroke-linejoin:round;paint-order:stroke fill markers"
         d="m 52.25959,-43.740442 c -1.380391,2.26e-4 -2.499363,1.119197 -2.49959,2.499589 v 2.126528 c 2.27e-4,1.380391 1.119199,2.499363 2.49959,2.499589 1.380594,6.1e-5 2.499883,-1.118995 2.50011,-2.499589 v -2.126528 c -2.27e-4,-1.380595 -1.119516,-2.49965 -2.50011,-2.499589 z"
         sodipodi:nodetypes="ccccccc" /><path
         id="path48"
         style="fill:#000000;fill-rule:evenodd;stroke-width:0.732347;stroke-linecap:round;stroke-linejoin:round;paint-order:stroke fill markers"
         d="m 82.25959,-43.740442 c -1.380391,2.26e-4 -2.499363,1.119197 -2.49959,2.499589 v 2.126528 c 2.27e-4,1.380391 1.119199,2.499363 2.49959,2.499589 1.380594,6.1e-5 2.499883,-1.118995 2.50011,-2.499589 v -2.126528 c -2.27e-4,-1.380595 -1.119516,-2.49965 -2.50011,-2.499589 z"
         sodipodi:nodetypes="ccccccc" /><path
         id="path49"
         style="fill:#000000;fill-rule:evenodd;stroke-width:0.732347;stroke-linecap:round;stroke-linejoin:round;paint-order:stroke fill markers"
         d="m 82.25959,-22.597707 c -1.380391,2.26e-4 -2.499363,1.119197 -2.49959,2.499589 v 6.910667 c 2.27e-4,1.380391 1.119199,2.499363 2.49959,2.499589 1.380594,6.1e-5 2.499883,-1.118995 2.50011,-2.499589 v -6.910667 c -2.27e-4,-1.380595 -1.119516,-2.49965 -2.50011,-2.499589 z"
         sodipodi:nodetypes="ccccccc" /><path
         id="path50"
         style="fill:#000000;fill-rule:evenodd;stroke-width:0.732347;stroke-linecap:round;stroke-linejoin:round;paint-order:stroke fill markers"
         d="m 92.25959,-28.079533 c -1.380391,2.26e-4 -2.499363,1.119197 -2.49959,2.499589 v 15.6815884 c 2.27e-4,1.380391 1.119199,2.499363 2.49959,2.499589 1.380594,6.1e-5 2.499883,-1.118995 2.50011,-2.499589 V -25.579944 c -2.27e-4,-1.380595 -1.119516,-2.49965 -2.50011,-2.499589 z"
         sodipodi:nodetypes="ccccccc" /><path
         id="path51"
         style="fill:#000000;fill-rule:evenodd;stroke-width:0.732347;stroke-linecap:round;stroke-linejoin:round;paint-order:stroke fill markers"
         d="m 102.25959,-33.063012 c -1.38039,2.26e-4 -2.499363,1.119197 -2.49959,2.499589 v 19.369363 c 2.27e-4,1.3803915 1.1192,2.4993632 2.49959,2.4995892 1.38059,6.1e-5 2.49988,-1.1189947 2.50011,-2.4995892 v -19.369363 c -2.3e-4,-1.380595 -1.11952,-2.49965 -2.50011,-2.499589 z"
         sodipodi:nodetypes="ccccccc" /><path
         id="path52"
         style="fill:#000000;fill-rule:evenodd;stroke-width:0.732347;stroke-linecap:round;stroke-linejoin:round;paint-order:stroke fill markers"
         d="m 112.25959,-35.654421 c -1.38039,2.26e-4 -2.49936,1.119197 -2.49959,2.499589 v 19.369363 c 2.3e-4,1.380391 1.1192,2.499363 2.49959,2.499589 1.38059,6.1e-5 2.49988,-1.118995 2.50011,-2.499589 v -19.369363 c -2.3e-4,-1.380595 -1.11952,-2.49965 -2.50011,-2.499589 z"
         sodipodi:nodetypes="ccccccc" /><path
         id="path53"
         style="fill:#000000;fill-rule:evenodd;stroke-width:0.732347;stroke-linecap:round;stroke-linejoin:round;paint-order:stroke fill markers"
         d="m 122.25959,-38.345498 c -1.38039,2.26e-4 -2.49936,1.119197 -2.49959,2.499589 v 20.539231 c 2.3e-4,1.380391 1.1192,2.499363 2.49959,2.499589 1.38059,6.1e-5 2.49988,-1.118995 2.50011,-2.499589 v -20.539231 c -2.3e-4,-1.380595 -1.11952,-2.49965 -2.50011,-2.499589 z"
         sodipodi:nodetypes="ccccccc" /><path
         id="path54"
         style="fill:#000000;fill-rule:evenodd;stroke-width:0.732347;stroke-linecap:round;stroke-linejoin:round;paint-order:stroke fill markers"
         d="m 132.25959,-40.637898 c -1.38039,2.26e-4 -2.49936,1.119197 -2.49959,2.499589 v 19.369363 c 2.3e-4,1.380391 1.1192,2.499363 2.49959,2.499589 1.38059,6.1e-5 2.49988,-1.118995 2.50011,-2.499589 v -19.369363 c -2.3e-4,-1.380595 -1.11952,-2.49965 -2.50011,-2.499589 z"
         sodipodi:nodetypes="ccccccc" /><path
         id="path55"
         style="fill:#999999;fill-rule:evenodd;stroke-width:0.732347;stroke-linecap:round;stroke-linejoin:round;paint-order:stroke fill markers"
         d="m 132.25959,-14.487721 c -1.38039,2.26e-4 -2.49936,1.119197 -2.49959,2.499589 v 1.237856 c 2.3e-4,1.3803913 1.1192,2.4993633 2.49959,2.4995893 1.38059,6.1e-5 2.49988,-1.118995 2.50011,-2.4995893 v -1.237856 c -2.3e-4,-1.380595 -1.11952,-2.49965 -2.50011,-2.499589 z"
         sodipodi:nodetypes="ccccccc" /><path
         id="path56"
         style="fill:#999999;fill-rule:evenodd;stroke-width:0.732347;stroke-linecap:round;stroke-linejoin:round;paint-order:stroke fill markers"
         d="m 142.25959,-19.786354 c -1.38039,2.26e-4 -2.49936,1.119197 -2.49959,2.499589 v 6.910667 c 2.3e-4,1.380391 1.1192,2.499363 2.49959,2.499589 1.38059,6.1e-5 2.49988,-1.118995 2.50011,-2.499589 v -6.910667 c -2.3e-4,-1.380595 -1.11952,-2.49965 -2.50011,-2.499589 z"
         sodipodi:nodetypes="ccccccc" /><path
         id="path57"
         style="fill:#000000;fill-rule:evenodd;stroke-width:0.732347;stroke-linecap:round;stroke-linejoin:round;paint-order:stroke fill markers"
         d="m 142.25959,-42.531619 c -1.38039,2.26e-4 -2.49936,1.119197 -2.49959,2.499589 v 15.681589 c 2.3e-4,1.380391 1.1192,2.499363 2.49959,2.499589 1.38059,6.1e-5 2.49988,-1.118995 2.50011,-2.499589 V -40.03203 c -2.3e-4,-1.380595 -1.11952,-2.49965 -2.50011,-2.499589 z"
         sodipodi:nodetypes="ccccccc" /><path
         id="path58"
         style="fill:#999999;fill-rule:evenodd;stroke-width:0.732347;stroke-linecap:round;stroke-linejoin:round;paint-order:stroke fill markers"
         d="m 152.25959,-23.949146 c -1.38039,2.26e-4 -2.49936,1.119197 -2.49959,2.499589 v 10.522214 c 2.3e-4,1.3803907 1.1192,2.4993627 2.49959,2.4995887 1.38059,6.1e-5 2.49988,-1.118995 2.50011,-2.4995887 v -10.522214 c -2.3e-4,-1.380595 -1.11952,-2.49965 -2.50011,-2.499589 z"
         sodipodi:nodetypes="ccccccc" /><path
         id="path59"
         style="fill:#000000;fill-rule:evenodd;stroke-width:0.732347;stroke-linecap:round;stroke-linejoin:round;paint-order:stroke fill markers"
         d="m 152.25959,-44.880574 c -1.38039,2.26e-4 -2.49936,1.119197 -2.49959,2.499589 v 14.226379 c 2.3e-4,1.380391 1.1192,2.499363 2.49959,2.499589 1.38059,6.1e-5 2.49988,-1.118995 2.50011,-2.499589 v -14.226379 c -2.3e-4,-1.380595 -1.11952,-2.49965 -2.50011,-2.499589 z"
         sodipodi:nodetypes="ccccccc" /><path
         id="path60"
         style="fill:#999999;fill-rule:evenodd;stroke-width:0.732347;stroke-linecap:round;stroke-linejoin:round;paint-order:stroke fill markers"
         d="m 162.25959,-24.04269 c -1.38039,2.26e-4 -2.49936,1.119197 -2.49959,2.499589 v 8.934713 c 2.3e-4,1.380391 1.1192,2.499363 2.49959,2.499589 1.38059,6.1e-5 2.49988,-1.118995 2.50011,-2.499589 v -8.934713 c -2.3e-4,-1.380595 -1.11952,-2.49965 -2.50011,-2.499589 z"
         sodipodi:nodetypes="ccccccc" /><path
         id="path61"
         style="fill:#000000;fill-rule:evenodd;stroke-width:0.732347;stroke-linecap:round;stroke-linejoin:round;paint-order:stroke fill markers"
         d="m 162.25959,-44.086824 c -1.38039,2.26e-4 -2.49936,1.119197 -2.49959,2.499589 v 13.432629 c 2.3e-4,1.380391 1.1192,2.499363 2.49959,2.499589 1.38059,6.1e-5 2.49988,-1.118995 2.50011,-2.499589 v -13.432629 c -2.3e-4,-1.380595 -1.11952,-2.49965 -2.50011,-2.499589 z"
         sodipodi:nodetypes="ccccccc" /><path
         id="path62"
         style="fill:#999999;fill-rule:evenodd;stroke-width:0.732347;stroke-linecap:round;stroke-linejoin:round;paint-order:stroke fill markers"
         d="m 172.25959,-25.820032 c -1.38039,2.26e-4 -2.49936,1.119197 -2.49959,2.499589 v 8.373447 c 2.3e-4,1.380391 1.1192,2.499363 2.49959,2.499589 1.38059,6.1e-5 2.49988,-1.118995 2.50011,-2.499589 v -8.373447 c -2.3e-4,-1.380595 -1.11952,-2.49965 -2.50011,-2.499589 z"
         sodipodi:nodetypes="ccccccc" /><path
         id="path63"
         style="fill:#000000;fill-rule:evenodd;stroke-width:0.732347;stroke-linecap:round;stroke-linejoin:round;paint-order:stroke fill markers"
         d="m 172.25959,-41.748216 c -1.38039,2.26e-4 -2.49936,1.119197 -2.49959,2.499589 v 9.12959 c 2.3e-4,1.380391 1.1192,2.499363 2.49959,2.499589 1.38059,6.1e-5 2.49988,-1.118995 2.50011,-2.499589 v -9.12959 c -2.3e-4,-1.380595 -1.11952,-2.49965 -2.50011,-2.499589 z"
         sodipodi:nodetypes="ccccccc" /><path
         id="path64"
         style="fill:#999999;fill-rule:evenodd;stroke-width:0.732347;stroke-linecap:round;stroke-linejoin:round;paint-order:stroke fill markers"
         d="m 182.25959,-25.820032 c -1.38039,2.26e-4 -2.49936,1.119197 -2.49959,2.499589 v 3.809384 c 2.3e-4,1.380391 1.1192,2.499363 2.49959,2.499589 1.38059,6.1e-5 2.49988,-1.118995 2.50011,-2.499589 v -3.809384 c -2.3e-4,-1.380595 -1.11952,-2.49965 -2.50011,-2.499589 z"
         sodipodi:nodetypes="ccccccc" /><path
         id="path65"
         style="fill:#000000;fill-rule:evenodd;stroke-width:0.732347;stroke-linecap:round;stroke-linejoin:round;paint-order:stroke fill markers"
         d="m 182.25959,-35.993528 c -1.38039,2.26e-4 -2.49936,1.119197 -2.49959,2.499589 v 3.374902 c 2.3e-4,1.380391 1.1192,2.499363 2.49959,2.499589 1.38059,6.1e-5 2.49988,-1.118995 2.50011,-2.499589 v -3.374902 c -2.3e-4,-1.380595 -1.11952,-2.49965 -2.50011,-2.499589 z"
         sodipodi:nodetypes="ccccccc" /></g><g
       id="g68"
       transform="matrix(0.50342623,0,0,0.50342623,45.338191,80.097251)"><g
         id="g44"
         transform="translate(-107.99969,-28.032487)"><path
           id="path6"
           style="fill:#ffffff;fill-rule:evenodd;stroke-width:0.732347;stroke-linecap:round;stroke-linejoin:round;paint-order:stroke fill markers;fill-opacity:1"
           d="m 72.259156,-41.04142 c -1.380391,2.26e-4 -2.499363,1.119197 -2.49959,2.499589 v 21.951967 c 2.27e-4,1.380391 1.119199,2.499363 2.49959,2.499589 1.380594,6.1e-5 2.499883,-1.118995 2.50011,-2.499589 v -21.951967 c -2.27e-4,-1.380595 -1.119516,-2.49965 -2.50011,-2.499589 z"
           sodipodi:nodetypes="ccccccc" /><path
           id="path7"
           style="fill:#ffffff;fill-rule:evenodd;stroke-width:0.732347;stroke-linecap:round;stroke-linejoin:round;paint-order:stroke fill markers;fill-opacity:1"
           d="m 62.25959,-39.498924 c -1.380391,2.26e-4 -2.499363,1.119197 -2.49959,2.499589 v 8.106701 c 2.27e-4,1.380391 1.119199,2.499363 2.49959,2.499589 1.380594,6.1e-5 2.499883,-1.118995 2.50011,-2.499589 v -8.106701 c -2.27e-4,-1.380595 -1.119516,-2.49965 -2.50011,-2.499589 z"
           sodipodi:nodetypes="ccccccc" /><path
           id="path8"
           style="fill:#ffffff;fill-rule:evenodd;stroke-width:0.732347;stroke-linecap:round;stroke-linejoin:round;paint-order:stroke fill markers;fill-opacity:1"
           d="m 52.25959,-43.740442 c -1.380391,2.26e-4 -2.499363,1.119197 -2.49959,2.499589 v 2.126528 c 2.27e-4,1.380391 1.119199,2.499363 2.49959,2.499589 1.380594,6.1e-5 2.499883,-1.118995 2.50011,-2.499589 v -2.126528 c -2.27e-4,-1.380595 -1.119516,-2.49965 -2.50011,-2.499589 z"
           sodipodi:nodetypes="ccccccc" /><path
           id="path9"
           style="fill:#ffffff;fill-rule:evenodd;stroke-width:0.732347;stroke-linecap:round;stroke-linejoin:round;paint-order:stroke fill markers;fill-opacity:1"
           d="m 82.25959,-43.740442 c -1.380391,2.26e-4 -2.499363,1.119197 -2.49959,2.499589 v 2.126528 c 2.27e-4,1.380391 1.119199,2.499363 2.49959,2.499589 1.380594,6.1e-5 2.499883,-1.118995 2.50011,-2.499589 v -2.126528 c -2.27e-4,-1.380595 -1.119516,-2.49965 -2.50011,-2.499589 z"
           sodipodi:nodetypes="ccccccc" /><path
           id="path10"
           style="fill:#ffffff;fill-rule:evenodd;stroke-width:0.732347;stroke-linecap:round;stroke-linejoin:round;paint-order:stroke fill markers;fill-opacity:1"
           d="m 82.25959,-22.597707 c -1.380391,2.26e-4 -2.499363,1.119197 -2.49959,2.499589 v 6.910667 c 2.27e-4,1.380391 1.119199,2.499363 2.49959,2.499589 1.380594,6.1e-5 2.499883,-1.118995 2.50011,-2.499589 v -6.910667 c -2.27e-4,-1.380595 -1.119516,-2.49965 -2.50011,-2.499589 z"
           sodipodi:nodetypes="ccccccc" /><path
           id="path11"
           style="fill:#ffffff;fill-rule:evenodd;stroke-width:0.732347;stroke-linecap:round;stroke-linejoin:round;paint-order:stroke fill markers;fill-opacity:1"
           d="m 92.25959,-28.079533 c -1.380391,2.26e-4 -2.499363,1.119197 -2.49959,2.499589 v 15.6815884 c 2.27e-4,1.380391 1.119199,2.499363 2.49959,2.499589 1.380594,6.1e-5 2.499883,-1.118995 2.50011,-2.499589 V -25.579944 c -2.27e-4,-1.380595 -1.119516,-2.49965 -2.50011,-2.499589 z"
           sodipodi:nodetypes="ccccccc" /><path
           id="path30"
           style="fill:#ffffff;fill-rule:evenodd;stroke-width:0.732347;stroke-linecap:round;stroke-linejoin:round;paint-order:stroke fill markers;fill-opacity:1"
           d="m 102.25959,-33.063012 c -1.38039,2.26e-4 -2.499363,1.119197 -2.49959,2.499589 v 19.369363 c 2.27e-4,1.3803915 1.1192,2.4993632 2.49959,2.4995892 1.38059,6.1e-5 2.49988,-1.1189947 2.50011,-2.4995892 v -19.369363 c -2.3e-4,-1.380595 -1.11952,-2.49965 -2.50011,-2.499589 z"
           sodipodi:nodetypes="ccccccc" /><path
           id="path31"
           style="fill:#ffffff;fill-rule:evenodd;stroke-width:0.732347;stroke-linecap:round;stroke-linejoin:round;paint-order:stroke fill markers;fill-opacity:1"
           d="m 112.25959,-35.654421 c -1.38039,2.26e-4 -2.49936,1.119197 -2.49959,2.499589 v 19.369363 c 2.3e-4,1.380391 1.1192,2.499363 2.49959,2.499589 1.38059,6.1e-5 2.49988,-1.118995 2.50011,-2.499589 v -19.369363 c -2.3e-4,-1.380595 -1.11952,-2.49965 -2.50011,-2.499589 z"
           sodipodi:nodetypes="ccccccc" /><path
           id="path32"
           style="fill:#ffffff;fill-rule:evenodd;stroke-width:0.732347;stroke-linecap:round;stroke-linejoin:round;paint-order:stroke fill markers;fill-opacity:1"
           d="m 122.25959,-38.345498 c -1.38039,2.26e-4 -2.49936,1.119197 -2.49959,2.499589 v 20.539231 c 2.3e-4,1.380391 1.1192,2.499363 2.49959,2.499589 1.38059,6.1e-5 2.49988,-1.118995 2.50011,-2.499589 v -20.539231 c -2.3e-4,-1.380595 -1.11952,-2.49965 -2.50011,-2.499589 z"
           sodipodi:nodetypes="ccccccc" /><path
           id="path33"
           style="fill:#ffffff;fill-rule:evenodd;stroke-width:0.732347;stroke-linecap:round;stroke-linejoin:round;paint-order:stroke fill markers;fill-opacity:1"
           d="m 132.25959,-40.637898 c -1.38039,2.26e-4 -2.49936,1.119197 -2.49959,2.499589 v 19.369363 c 2.3e-4,1.380391 1.1192,2.499363 2.49959,2.499589 1.38059,6.1e-5 2.49988,-1.118995 2.50011,-2.499589 v -19.369363 c -2.3e-4,-1.380595 -1.11952,-2.49965 -2.50011,-2.499589 z"
           sodipodi:nodetypes="ccccccc" /><path
           id="path34"
           style="fill:#000000;fill-rule:evenodd;stroke-width:0.732347;stroke-linecap:round;stroke-linejoin:round;paint-order:stroke fill markers;fill-opacity:1"
           d="m 132.25959,-14.487721 c -1.38039,2.26e-4 -2.49936,1.119197 -2.49959,2.499589 v 1.237856 c 2.3e-4,1.3803913 1.1192,2.4993633 2.49959,2.4995893 1.38059,6.1e-5 2.49988,-1.118995 2.50011,-2.4995893 v -1.237856 c -2.3e-4,-1.380595 -1.11952,-2.49965 -2.50011,-2.499589 z"
           sodipodi:nodetypes="ccccccc" /><path
           id="path35"
           style="fill:#000000;fill-rule:evenodd;stroke-width:0.732347;stroke-linecap:round;stroke-linejoin:round;paint-order:stroke fill markers;fill-opacity:1"
           d="m 142.25959,-19.786354 c -1.38039,2.26e-4 -2.49936,1.119197 -2.49959,2.499589 v 6.910667 c 2.3e-4,1.380391 1.1192,2.499363 2.49959,2.499589 1.38059,6.1e-5 2.49988,-1.118995 2.50011,-2.499589 v -6.910667 c -2.3e-4,-1.380595 -1.11952,-2.49965 -2.50011,-2.499589 z"
           sodipodi:nodetypes="ccccccc" /><path
           id="path36"
           style="fill:#ffffff;fill-rule:evenodd;stroke-width:0.732347;stroke-linecap:round;stroke-linejoin:round;paint-order:stroke fill markers;fill-opacity:1"
           d="m 142.25959,-42.531619 c -1.38039,2.26e-4 -2.49936,1.119197 -2.49959,2.499589 v 15.681589 c 2.3e-4,1.380391 1.1192,2.499363 2.49959,2.499589 1.38059,6.1e-5 2.49988,-1.118995 2.50011,-2.499589 V -40.03203 c -2.3e-4,-1.380595 -1.11952,-2.49965 -2.50011,-2.499589 z"
           sodipodi:nodetypes="ccccccc" /><path
           id="path37"
           style="fill:#000000;fill-rule:evenodd;stroke-width:0.732347;stroke-linecap:round;stroke-linejoin:round;paint-order:stroke fill markers;fill-opacity:1"
           d="m 152.25959,-23.949146 c -1.38039,2.26e-4 -2.49936,1.119197 -2.49959,2.499589 v 10.522214 c 2.3e-4,1.3803907 1.1192,2.4993627 2.49959,2.4995887 1.38059,6.1e-5 2.49988,-1.118995 2.50011,-2.4995887 v -10.522214 c -2.3e-4,-1.380595 -1.11952,-2.49965 -2.50011,-2.499589 z"
           sodipodi:nodetypes="ccccccc" /><path
           id="path38"
           style="fill:#ffffff;fill-rule:evenodd;stroke-width:0.732347;stroke-linecap:round;stroke-linejoin:round;paint-order:stroke fill markers;fill-opacity:1"
           d="m 152.25959,-44.880574 c -1.38039,2.26e-4 -2.49936,1.119197 -2.49959,2.499589 v 14.226379 c 2.3e-4,1.380391 1.1192,2.499363 2.49959,2.499589 1.38059,6.1e-5 2.49988,-1.118995 2.50011,-2.499589 v -14.226379 c -2.3e-4,-1.380595 -1.11952,-2.49965 -2.50011,-2.499589 z"
           sodipodi:nodetypes="ccccccc" /><path
           id="path39"
           style="fill:#000000;fill-rule:evenodd;stroke-width:0.732347;stroke-linecap:round;stroke-linejoin:round;paint-order:stroke fill markers;fill-opacity:1"
           d="m 162.25959,-24.04269 c -1.38039,2.26e-4 -2.49936,1.119197 -2.49959,2.499589 v 8.934713 c 2.3e-4,1.380391 1.1192,2.499363 2.49959,2.499589 1.38059,6.1e-5 2.49988,-1.118995 2.50011,-2.499589 v -8.934713 c -2.3e-4,-1.380595 -1.11952,-2.49965 -2.50011,-2.499589 z"
           sodipodi:nodetypes="ccccccc" /><path
           id="path40"
           style="fill:#ffffff;fill-rule:evenodd;stroke-width:0.732347;stroke-linecap:round;stroke-linejoin:round;paint-order:stroke fill markers;fill-opacity:1"
           d="m 162.25959,-44.086824 c -1.38039,2.26e-4 -2.49936,1.119197 -2.49959,2.499589 v 13.432629 c 2.3e-4,1.380391 1.1192,2.499363 2.49959,2.499589 1.38059,6.1e-5 2.49988,-1.118995 2.50011,-2.499589 v -13.432629 c -2.3e-4,-1.380595 -1.11952,-2.49965 -2.50011,-2.499589 z"
           sodipodi:nodetypes="ccccccc" /><path
           id="path41"
           style="fill:#000000;fill-rule:evenodd;stroke-width:0.732347;stroke-linecap:round;stroke-linejoin:round;paint-order:stroke fill markers;fill-opacity:1"
           d="m 172.25959,-25.820032 c -1.38039,2.26e-4 -2.49936,1.119197 -2.49959,2.499589 v 8.373447 c 2.3e-4,1.380391 1.1192,2.499363 2.49959,2.499589 1.38059,6.1e-5 2.49988,-1.118995 2.50011,-2.499589 v -8.373447 c -2.3e-4,-1.380595 -1.11952,-2.49965 -2.50011,-2.499589 z"
           sodipodi:nodetypes="ccccccc" /><path
           id="path42"
           style="fill:#ffffff;fill-rule:evenodd;stroke-width:0.732347;stroke-linecap:round;stroke-linejoin:round;paint-order:stroke fill markers;fill-opacity:1"
           d="m 172.25959,-41.748216 c -1.38039,2.26e-4 -2.49936,1.119197 -2.49959,2.499589 v 9.12959 c 2.3e-4,1.380391 1.1192,2.499363 2.49959,2.499589 1.38059,6.1e-5 2.49988,-1.118995 2.50011,-2.499589 v -9.12959 c -2.3e-4,-1.380595 -1.11952,-2.49965 -2.50011,-2.499589 z"
           sodipodi:nodetypes="ccccccc" /><path
           id="path43"
           style="fill:#000000;fill-rule:evenodd;stroke-width:0.732347;stroke-linecap:round;stroke-linejoin:round;paint-order:stroke fill markers;fill-opacity:1"
           d="m 182.25959,-25.820032 c -1.38039,2.26e-4 -2.49936,1.119197 -2.49959,2.499589 v 3.809384 c 2.3e-4,1.380391 1.1192,2.499363 2.49959,2.499589 1.38059,6.1e-5 2.49988,-1.118995 2.50011,-2.499589 v -3.809384 c -2.3e-4,-1.380595 -1.11952,-2.49965 -2.50011,-2.499589 z"
           sodipodi:nodetypes="ccccccc" /><path
           id="path44"
           style="fill:#ffffff;fill-rule:evenodd;stroke-width:0.732347;stroke-linecap:round;stroke-linejoin:round;paint-order:stroke fill markers;fill-opacity:1"
           d="m 182.25959,-35.993528 c -1.38039,2.26e-4 -2.49936,1.119197 -2.49959,2.499589 v 3.374902 c 2.3e-4,1.380391 1.1192,2.499363 2.49959,2.499589 1.38059,6.1e-5 2.49988,-1.118995 2.50011,-2.499589 v -3.374902 c -2.3e-4,-1.380595 -1.11952,-2.49965 -2.50011,-2.499589 z"
           sodipodi:nodetypes="ccccccc" /></g><rect
         style="fill:none;fill-opacity:1;fill-rule:evenodd;stroke:#000000;stroke-width:3.22969;stroke-linecap:round;stroke-linejoin:round;stroke-dasharray:none;stroke-opacity:1;paint-order:stroke fill markers"
         id="rect65"
         width="165.92813"
         height="90.279831"
         x="-73.703903"
         y="-104.92474"
         rx="9.9861765" /><rect
         style="fill:#000000;fill-opacity:1;fill-rule:evenodd;stroke:none;stroke-width:3.05386;stroke-linecap:round;stroke-linejoin:round;stroke-dasharray:none;stroke-opacity:1;paint-order:stroke fill markers"
         id="rect66"
         width="165.87267"
         height="3"
         x="-73.572975"
         y="-92.315277" /><circle
         style="fill:#000000;fill-opacity:1;fill-rule:evenodd;stroke:none;stroke-width:2.22325;stroke-linecap:round;stroke-linejoin:round;stroke-dasharray:none;stroke-opacity:1;paint-order:stroke fill markers"
         id="path67"
         cx="-62.205532"
         cy="-97.43734"
         r="2.5" /><circle
         style="fill:#000000;fill-opacity:1;fill-rule:evenodd;stroke:none;stroke-width:2.22325;stroke-linecap:round;stroke-linejoin:round;stroke-dasharray:none;stroke-opacity:1;paint-order:stroke fill markers"
         id="circle67"
         cx="-52.205273"
         cy="-97.43734"
         r="2.5" /><circle
         style="fill:#000000;fill-opacity:1;fill-rule:evenodd;stroke:none;stroke-width:2.22325;stroke-linecap:round;stroke-linejoin:round;stroke-dasharray:none;stroke-opacity:1;paint-order:stroke fill markers"
         id="circle68"
         cx="-42.205273"
         cy="-97.43734"
         r="2.5" /></g></g></svg>
